<svg width="177" height="73" viewBox="0 0 177 73" fill="none" xmlns="http://www.w3.org/2000/svg">
<path d="M40.125 35.2188V53.25C39.4167 54.1042 38.3229 55.0312 36.8438 56.0312C35.3646 57.0104 33.4583 57.8542 31.125 58.5625C28.7917 59.2708 25.9688 59.625 22.6562 59.625C19.7188 59.625 17.0417 59.1458 14.625 58.1875C12.2083 57.2083 10.125 55.7812 8.375 53.9062C6.64583 52.0312 5.3125 49.7396 4.375 47.0312C3.4375 44.3021 2.96875 41.1875 2.96875 37.6875V34.8438C2.96875 31.3438 3.41667 28.2292 4.3125 25.5C5.22917 22.7708 6.53125 20.4688 8.21875 18.5938C9.90625 16.7188 11.9167 15.2917 14.25 14.3125C16.5833 13.3333 19.1771 12.8438 22.0312 12.8438C25.9896 12.8438 29.2396 13.4896 31.7812 14.7812C34.3229 16.0521 36.2604 17.8229 37.5938 20.0938C38.9479 22.3438 39.7812 24.9271 40.0938 27.8438H31C30.7708 26.3021 30.3333 24.9583 29.6875 23.8125C29.0417 22.6667 28.1146 21.7708 26.9062 21.125C25.7188 20.4792 24.1771 20.1562 22.2812 20.1562C20.7188 20.1562 19.3229 20.4792 18.0938 21.125C16.8854 21.75 15.8646 22.6771 15.0312 23.9062C14.1979 25.1354 13.5625 26.6562 13.125 28.4688C12.6875 30.2812 12.4688 32.3854 12.4688 34.7812V37.6875C12.4688 40.0625 12.6979 42.1667 13.1562 44C13.6146 45.8125 14.2917 47.3438 15.1875 48.5938C16.1042 49.8229 17.2292 50.75 18.5625 51.375C19.8958 52 21.4479 52.3125 23.2188 52.3125C24.6979 52.3125 25.9271 52.1875 26.9062 51.9375C27.9062 51.6875 28.7083 51.3854 29.3125 51.0312C29.9375 50.6562 30.4167 50.3021 30.75 49.9688V41.9062H22.1875V35.2188H40.125ZM61.6562 59H51.75L51.8125 51.6875H61.6562C64.1146 51.6875 66.1875 51.1354 67.875 50.0312C69.5625 48.9062 70.8333 47.2708 71.6875 45.125C72.5625 42.9792 73 40.3854 73 37.3438V35.125C73 32.7917 72.75 30.7396 72.25 28.9688C71.7708 27.1979 71.0521 25.7083 70.0938 24.5C69.1354 23.2917 67.9583 22.3854 66.5625 21.7812C65.1667 21.1562 63.5625 20.8438 61.75 20.8438H51.5625V13.5H61.75C64.7917 13.5 67.5729 14.0208 70.0938 15.0625C72.6354 16.0833 74.8333 17.5521 76.6875 19.4688C78.5417 21.3854 79.9688 23.6771 80.9688 26.3438C81.9896 28.9896 82.5 31.9375 82.5 35.1875V37.3438C82.5 40.5729 81.9896 43.5208 80.9688 46.1875C79.9688 48.8542 78.5417 51.1458 76.6875 53.0625C74.8542 54.9583 72.6562 56.4271 70.0938 57.4688C67.5521 58.4896 64.7396 59 61.6562 59ZM57.0625 13.5V59H47.6875V13.5H57.0625ZM98.6875 13.5V59H89.3125V13.5H98.6875ZM116.812 32.9375V40.25H96.125V32.9375H116.812ZM119 13.5V20.8438H96.125V13.5H119Z" fill="url(#paint0_linear_6_5)"/>
<path d="M173.917 34.7586C175.272 35.524 175.272 37.476 173.917 38.2414L145.484 54.3005C144.15 55.0535 142.5 54.0902 142.5 52.559V20.441C142.5 18.9098 144.15 17.9465 145.484 18.6995L173.917 34.7586Z" fill="#E3E3E3"/>
<defs>
<linearGradient id="paint0_linear_6_5" x1="73" y1="1.18802e-06" x2="69.6615" y2="58.8674" gradientUnits="userSpaceOnUse">
<stop offset="0.666" stop-color="#E3E3E3"/>
<stop offset="1" stop-color="#B1B1B1"/>
</linearGradient>
</defs>
</svg>
